<svg xmlns="http://www.w3.org/2000/svg" xmlns:xlink="http://www.w3.org/1999/xlink" viewBox="0 0 119.68 25.44"><defs><style>.cls-1{fill:url(#radial-gradient);}</style><radialGradient id="radial-gradient" cx="59.84" cy="12.72" r="43.26" gradientUnits="userSpaceOnUse"><stop offset="0" stop-color="#2484c6"/><stop offset="1" stop-color="#2484c6" stop-opacity="0"/></radialGradient></defs><title>Asset 1</title><g id="Layer_2" data-name="Layer 2"><g id="Layer_1-2" data-name="Layer 1"><path class="cls-1" d="M43.47,12.62l7.72-7.73,3.11,3,.29-.37A6.85,6.85,0,0,1,59.49,5l.39,0V0h.21V4.93l.39,0a6.83,6.83,0,0,1,4.38,2,7.63,7.63,0,0,1,.53.59l.29.37,3.09-3,7.72,7.73h43.19v.2H76.49l-7.72,7.72-3.09-3-.29.36a6.29,6.29,0,0,1-.53.6,6.83,6.83,0,0,1-4.38,2l-.39,0v4.93h-.21V20.51l-.39,0a6.83,6.83,0,0,1-4.9-2.6l-.29-.36-3.11,3-7.72-7.72H0m54.45,4.55.22.29a6.69,6.69,0,0,0,4.75,2.61l.46,0v-1.9l-.38,0A5,5,0,0,1,56,16.47l-.29-.37Zm9.49-.9a5,5,0,0,1-3.47,1.9l-.38,0v1.9l.45,0a6.68,6.68,0,0,0,4.17-1.93,7.16,7.16,0,0,0,.59-.68l.22-.3-1.3-1.26ZM51.2,20.25l3-2.91L54,17.05a6.72,6.72,0,0,1-.82-2.24l-.06-.35H45.4Zm15.56-5.41A6.82,6.82,0,0,1,66,17.06l-.17.28,3,2.91,5.79-5.79h-7.8ZM55.9,15.93l0,0a4.8,4.8,0,0,0,3.49,2.19l.47.06V14.46H53.33l.11.5a6.23,6.23,0,0,0,.62,1.74l.26.5,1.5-1.46Zm4.19,2.27.47-.05A4.91,4.91,0,0,0,64.05,16v0l.09-.19,1.5,1.47.26-.51A6.62,6.62,0,0,0,66.53,15v-.51H60.09Zm-6.78-5v.38a2.18,2.18,0,0,0,0,.25l0,.39h6.55V13.14h.21v1.11h6.54l0-.39a2.09,2.09,0,0,0,0-.25V11.83a2,2,0,0,0,0-.25l0-.39H60.09v1.1h-.21v-1.1H53.33l0,.39a2,2,0,0,0,0,.25v.78h0v.62Zm-8.11,1h7.93l0-.45a1.15,1.15,0,0,1,0-.19v-.79H43.77Zm21.67-.64v.19l0,.45h7.93l1.43-1.43H66.87Zm0-2v1H76.2l-1.43-1.43H66.84Zm-23.1,1h9.32v-.79a1.15,1.15,0,0,1,0-.19l0-.45H45.2Zm23-1.64h7.8L68.77,5.19l-3,2.91.17.28a6.76,6.76,0,0,1,.81,2.21Zm-6.67,0h6.45v-.51a6.69,6.69,0,0,0-.62-1.74l-.26-.5-1.5,1.46-.09-.19v0a5.16,5.16,0,0,0-.66-.82,4.71,4.71,0,0,0-2.83-1.37l-.47-.06Zm-6-2.24a6.28,6.28,0,0,0-.62,1.73l-.11.51h6.55V7.23l-.47.06a4.74,4.74,0,0,0-3.49,2.19l0,0-.08.18-1.5-1.45ZM45.4,11h7.74l.06-.35A6.77,6.77,0,0,1,54,8.38l.16-.28-3-2.91Zm14-5.81a6.65,6.65,0,0,0-4.75,2.61l-.22.29,1.29,1.26L56,9A5,5,0,0,1,59.5,7.07l.38,0V5.13ZM60.09,7l.38,0A5,5,0,0,1,63.94,9l.28.36,1.3-1.25-.22-.3a6.1,6.1,0,0,0-.59-.68,6.68,6.68,0,0,0-4.17-1.93l-.45,0Z"/></g></g></svg>