<svg xmlns="http://www.w3.org/2000/svg" xmlns:xlink="http://www.w3.org/1999/xlink" viewBox="0 0 284.39 60.45"><defs><style>.cls-1{fill:url(#radial-gradient);}</style><radialGradient id="radial-gradient" cx="142.2" cy="30.22" r="102.79" gradientUnits="userSpaceOnUse"><stop offset="0" stop-color="#2484c6"/><stop offset="1" stop-color="#2484c6" stop-opacity="0"/></radialGradient></defs><title>Asset 2</title><g id="Layer_2" data-name="Layer 2"><g id="Layer_1-2" data-name="Layer 1"><path class="cls-1" d="M142.29,60.45V48.73l-.93-.07a16.28,16.28,0,0,1-11.65-6.17l-.69-.87-7.37,7.2L103.3,30.47H0V30H103.3l18.35-18.35L129,18.82l.69-.87a16.32,16.32,0,0,1,11.65-6.17l.93-.06V0h.49V11.71l.93.07a16.3,16.3,0,0,1,10.4,4.75A17.74,17.74,0,0,1,155.38,18l.69.86,7.35-7.18L181.76,30H284.39v.49H181.76L163.42,48.82l-7.35-7.19-.69.87c-.41.5-.83,1-1.27,1.42a16.3,16.3,0,0,1-10.4,4.75l-.93.06V60.45ZM129.38,41.27l.54.7a15.86,15.86,0,0,0,11.28,6.2l1.09.09V43.74l-.91-.09a11.74,11.74,0,0,1-8.23-4.51l-.69-.87Zm22.54-2.13a12,12,0,0,1-8.24,4.51l-.9.09v4.51l1.08-.08a15.87,15.87,0,0,0,9.9-4.6,14.51,14.51,0,0,0,1.4-1.61l.53-.7-3.08-3Zm-30.26,9,7.09-6.92-.39-.68a16,16,0,0,1-2-5.34l-.14-.83H107.89Zm37-12.85a15.73,15.73,0,0,1-1.93,5.26l-.39.67,7.09,6.92,13.77-13.76H158.64Zm-25.8,2.59,0,.06a11.35,11.35,0,0,0,8.29,5.21l1.12.13v-8.9H126.73l.25,1.21a15.37,15.37,0,0,0,1.48,4.12l.62,1.19,3.55-3.46Zm9.94,5.4,1.11-.13a11.3,11.3,0,0,0,6.74-3.27,11.64,11.64,0,0,0,1.56-1.94l0-.06.21-.45L156,40.88l.62-1.19a15.9,15.9,0,0,0,1.47-4.13l0-.1v-1.1H142.78ZM126.67,31.44v.89c0,.21,0,.4,0,.6l.06.93h15.56V31.23h.49v2.64h15.56l.06-.94c0-.19,0-.39,0-.59V28.1c0-.2,0-.39,0-.59l-.07-.93H142.78v2.63h-.49V26.58H126.73l-.06.93c0,.2,0,.39,0,.59l0,1.86h0v.93ZM107.4,33.86h18.85l-.08-1.07c0-.16,0-.3,0-.46V30.47H104Zm51.5-1.52c0,.16,0,.3,0,.46l-.07,1.06h18.84l3.41-3.4H158.9Zm0-4.69c0,.15,0,.3,0,.45V30h22.17l-3.4-3.4H158.82ZM104,30h22.17V28.1c0-.15,0-.3,0-.45l.08-1.07H107.4Zm54.64-3.9h18.54L163.41,12.33l-7.09,6.91.39.68a15.76,15.76,0,0,1,1.93,5.25Zm-15.86,0h15.33V25l0-.11a15.9,15.9,0,0,0-1.47-4.13L156,19.56,152.44,23l-.21-.45,0-.06a11.64,11.64,0,0,0-1.56-1.94,11.19,11.19,0,0,0-6.74-3.27l-1.11-.13Zm-14.32-5.33A15.31,15.31,0,0,0,127,24.89l-.25,1.2h15.56V17.18l-1.12.13a11.33,11.33,0,0,0-8.29,5.22l0,.06-.21.45-3.55-3.46Zm-20.57,5.33h18.38l.14-.83a16.13,16.13,0,0,1,2-5.34l.39-.67-7.09-6.92Zm33.32-13.81a15.87,15.87,0,0,0-11.29,6.2l-.54.7,3.08,3,.69-.88a11.81,11.81,0,0,1,8.23-4.51l.91-.08V12.19Zm1.57,4.43.9.09a12,12,0,0,1,8.24,4.5l.69.88,3.08-3-.53-.71a15.4,15.4,0,0,0-1.4-1.6,15.82,15.82,0,0,0-9.9-4.6l-1.08-.09Z"/></g></g></svg>