<svg xmlns="http://www.w3.org/2000/svg" xmlns:xlink="http://www.w3.org/1999/xlink" viewBox="0 0 387.34 10.14"><defs><style>.cls-1{fill:#bfd3d7;}.cls-2{fill:url(#linear-gradient);}.cls-3{fill:#4b99b2;}.cls-4{fill:url(#New_Gradient_Swatch_1);}</style><linearGradient id="linear-gradient" x1="8.18" y1="5.07" x2="149.55" y2="5.07" gradientUnits="userSpaceOnUse"><stop offset="0" stop-color="#4b99b2"/><stop offset="1" stop-color="#bfd3d7"/></linearGradient><linearGradient id="New_Gradient_Swatch_1" x1="237.78" y1="5.07" x2="379.16" y2="5.07" gradientUnits="userSpaceOnUse"><stop offset="0" stop-color="#bfd3d7"/><stop offset="1" stop-color="#4b99b2"/></linearGradient></defs><title>Asset 1</title><g id="Layer_2" data-name="Layer 2"><g id="Layer_1-2" data-name="Layer 1"><circle class="cls-1" cx="162.97" cy="5.07" r="3.59"/><path class="cls-1" d="M183.55,1.48A3.59,3.59,0,1,1,180,5.07,3.59,3.59,0,0,1,183.55,1.48Z"/><circle class="cls-1" cx="204.13" cy="5.07" r="3.59"/><circle class="cls-1" cx="224.71" cy="5.07" r="3.59" transform="translate(183.47 226.02) rotate(-80.72)"/><path class="cls-2" d="M149.05,5.57H8.68a.51.51,0,0,1-.5-.5.5.5,0,0,1,.5-.5H149.05a.5.5,0,0,1,0,1Z"/><path class="cls-3" d="M5.07,0A5.07,5.07,0,1,1,0,5.07,5.07,5.07,0,0,1,5.07,0Z"/><path class="cls-4" d="M238.28,5.57a.5.5,0,0,1,0-1H378.66a.5.5,0,0,1,.5.5.51.51,0,0,1-.5.5Z"/><path class="cls-3" d="M382.27,0a5.07,5.07,0,1,0,5.07,5.07A5.07,5.07,0,0,0,382.27,0Z"/></g></g></svg>