<svg xmlns="http://www.w3.org/2000/svg" xmlns:xlink="http://www.w3.org/1999/xlink" viewBox="0 0 149.53 28.04"><defs><style>.cls-1{fill:#b9d4d8;}.cls-1,.cls-2,.cls-3{fill-rule:evenodd;}.cls-2{fill:#067b91;}.cls-3{fill:#2b9bb5;}.cls-4,.cls-5{fill:none;stroke-miterlimit:10;stroke-width:0.2px;}.cls-4{stroke:url(#linear-gradient);}.cls-5{stroke:url(#linear-gradient-2);}</style><linearGradient id="linear-gradient" y1="25.01" x2="72.58" y2="25.01" gradientUnits="userSpaceOnUse"><stop offset="0" stop-color="#2484c6" stop-opacity="0"/><stop offset="1" stop-color="#057b91"/></linearGradient><linearGradient id="linear-gradient-2" x1="-77" y1="47.01" x2="-4.42" y2="47.01" gradientTransform="translate(72.53 50.04) rotate(180)" xlink:href="#linear-gradient"/></defs><title>Asset 3</title><g id="Layer_2" data-name="Layer 2"><g id="Layer_1-2" data-name="Layer 1"><path class="cls-1" d="M81.38,18.11l-1.2-.7h-.06l-1.2.7-.08.05.08,0,.77.45a.63.63,0,0,1,.44-.18.64.64,0,0,1,.46.19l.79-.46.08,0Z"/><path class="cls-1" d="M78.09,7.3l-2.6-1.5a.76.76,0,0,0,0-.15V5.58L76.42,5h0l1.28.74a.62.62,0,0,0,1.21,0l1.28-.73,0,0,0,0,1,.6.08,0-.08,0L78.62,7.3a.62.62,0,0,0-.53,0"/><path class="cls-1" d="M69.52,11.26l1,.6.07.05-.07,0L68,13.42a.6.6,0,0,0-.43-.18.61.61,0,0,0-.44.18L64.61,12l-.08,0,.08-.05,1-.6h0l1.89,1.09,1.88-1.09h0Z"/><path class="cls-1" d="M68.89,8.78,68,9.29a.6.6,0,0,0-.41-.16.63.63,0,0,0-.42.16l-.89-.51-.07,0,.07,0L67.56,8h0l1.28.74.08,0Z"/><path class="cls-1" d="M74.35,9.29l-.88-.51-.08,0,.08,0L74.74,8h.05l1.28.74.08,0-.08,0-.89.51a.62.62,0,0,0-.83,0"/><path class="cls-1" d="M80.64,8.69,81.92,8h0l1.28.74.08,0-.08,0-.89.51A.6.6,0,0,0,82,9.13a.63.63,0,0,0-.42.16l-.89-.51-.07,0Z"/><path class="cls-1" d="M80.06,11.26,82,12.35l1.88-1.09h0l1.05.6.07.05-.07,0-2.55,1.47a.6.6,0,0,0-.43-.18.61.61,0,0,0-.44.18L79,12l-.08,0,.08-.05,1-.6h0Z"/><path class="cls-1" d="M82.24,16.33l1.59-.92,0,0,0,0,1.05.6.07,0-.07.05-.94.54a.54.54,0,0,0-.25-.06.53.53,0,0,0-.52.51l-.93.53-.08.05V16.34Z"/><path class="cls-1" d="M67.32,16.37v1.3l-.08-.05-.93-.53a.53.53,0,0,0-.52-.51.48.48,0,0,0-.24.06l-.94-.54-.08-.05.08,0,1-.6,0,0,0,0,1.59.92h0Z"/><path class="cls-1" d="M68.15,18.11l1.2-.7h.06l1.21.7.07.05-.07,0-.78.45a.63.63,0,0,0-.44-.18.64.64,0,0,0-.46.19l-.79-.46-.08,0Z"/><path class="cls-1" d="M78.09,20.75v1.68l1.45.83.08,0-.08,0L78.38,24l0,0,0,0-2.43-1.4h0l-.4-.23V22.3a.66.66,0,0,0,0-.14L78,20.71l.08-.05Z"/><path class="cls-1" d="M71.52,20.71,74,22.16a.66.66,0,0,0,0,.14v.09L71.21,24l0,0,0,0L70,23.35l-.08,0,.08,0,1.44-.83V20.66Z"/><path class="cls-1" d="M69.29,5.05l1.28.73a.62.62,0,0,0,1.21,0L73.06,5h0l.92.54v.07a.76.76,0,0,0,0,.15l-2.6,1.5a.62.62,0,0,0-.53,0L68.2,5.74l-.08,0,.08,0,1-.6,0,0Z"/><polygon class="cls-2" points="79.65 17.11 79.19 16.85 79.19 16.84 79.15 16.82 78.7 16.56 78.62 16.52 78.62 16.61 78.62 17.71 79.65 17.11"/><path class="cls-2" d="M79.9,20.12v-.46a.61.61,0,0,1-.38-.56l-.85-.49-.08,0v3.57h0l1.2.7.08,0V20.12Z"/><path class="cls-2" d="M69.76,10.76V8.58L67.88,7.49h0V6.15l.08,0,.52.29,0,0h0l2.08,1.2a.66.66,0,0,0,0,.14.61.61,0,0,0,.35.56v3l-.08,0-1-.6h0Z"/><path class="cls-2" d="M71.44,10.58V8.42l.16-.1,1.08.62,0,0v7.67l-.07-.05-1.16-.66,0,0V11.73h0Z"/><path class="cls-2" d="M73.24,16.91V9.26l.08.05.83.48a.61.61,0,0,0,.35.52v7a.6.6,0,0,0-.23.19l-1-.59h0Z"/><path class="cls-2" d="M76.65,8.41l-1.59-.92h0V6.34a.56.56,0,0,0,.17-.09l.36.21,0,0h0l2.14,1.24h0s0,.06,0,.09l-1,.6,0,0Z"/><path class="cls-2" d="M74.28,5.1l-.9-.52h0V2.67h0l1-.6L74.5,2V5a.61.61,0,0,0-.22.13"/><path class="cls-2" d="M70.91,4.17V5.1a.5.5,0,0,0-.2.15l-.83-.48-.08,0,.08,0,1-.55.08,0Z"/><path class="cls-2" d="M76.71,4.54V3l.08,0,1.27.73,0,0V5.1a.5.5,0,0,0-.2.15l-1.15-.67h0Z"/><path class="cls-2" d="M80.38,9.24l1,.55a.61.61,0,0,0,.35.52v1.27l-.08,0-1.27-.74h0V9.19Z"/><polygon class="cls-2" points="84.12 10.76 84.12 8.58 82.24 7.49 82.21 7.47 82.21 7.45 82.21 6.25 82.21 6.16 82.29 6.2 85.24 7.91 85.27 7.92 85.27 7.95 85.27 11.36 85.27 11.45 85.19 11.4 84.15 10.8 84.12 10.79 84.12 10.76"/><polygon class="cls-2" points="84.15 13.02 85.19 12.41 85.27 12.37 85.27 12.46 85.27 13.62 85.27 13.62 85.27 14.35 85.27 15.5 85.27 15.59 85.19 15.55 84.15 14.95 84.12 14.93 84.12 14.9 84.12 13.06 84.12 13.03 84.15 13.02"/><path class="cls-2" d="M78.7,12.42l2.63,1.51a.59.59,0,0,0,.35.48v1.18l-.08,0-2.95-1.71h0V12.37Z"/><polygon class="cls-2" points="78.7 14.49 81.65 16.19 81.68 16.21 81.68 16.24 81.68 17.58 81.68 17.67 81.6 17.62 78.97 16.1 78.97 16.1 78.65 15.92 78.62 15.9 78.62 15.87 78.62 14.53 78.62 14.44 78.7 14.49"/><polygon class="cls-2" points="76.71 23.7 77.74 24.3 77.82 24.34 77.74 24.39 76.71 24.98 76.71 23.7"/><path class="cls-2" d="M74.5,18.47v3.14l-.18.1-2.85-1.65h0V16.52l.08,0,2.66,1.54a.65.65,0,0,0,.32.37"/><path class="cls-2" d="M67.24,15.68,66,15l0,0V13.34l.08,0,.44.26.05,0h0l.46.27a.59.59,0,0,0,.35.47v1.32Z"/><path class="cls-2" d="M66,9.24l1,.55a.61.61,0,0,0,.35.52v1.27l-.08,0L66,10.8h0V9.19Z"/><path class="cls-2" d="M69.13,21.41v1.44l-.08,0-1.17-.68h0V20.64h0v-.8h0v-.45h0v-.8l.08,0,.85.49a.62.62,0,0,0,.35.52v1.77Z"/><polygon class="cls-2" points="67.29 18.27 66.14 17.6 66.06 17.55 66.06 17.56 66.06 17.64 66.06 21.05 66.06 21.08 66.08 21.09 67.24 21.76 67.32 21.81 67.32 21.72 67.32 18.31 67.32 18.28 67.29 18.27"/><path class="cls-2" d="M65.52,20.68V17.56a.54.54,0,0,1-.25-.45h0l-.93-.54-.08,0V20l0,0,1.16.67.07,0Z"/><path class="cls-2" d="M74.42,25.91l-1-.6,0,0v-1.9h0l.91-.52a.74.74,0,0,0,.21.13v3Z"/><path class="cls-3" d="M75,25.86V23a1,1,0,0,0,.22-.13l.9.52,0,0v1.89l0,0-1,.6L75,26Z"/><path class="cls-3" d="M80.4,21.41v1.44l.08,0,1.17-.68h0V20.64h0v-.8h0v-.45h0v-.8l-.08,0-.85.49a.6.6,0,0,1-.35.52v1.77Z"/><path class="cls-3" d="M72.82,3.07v1.5h0l-1.15.67a.43.43,0,0,0-.2-.15V3.78l0,0L72.74,3l.08,0Z"/><path class="cls-3" d="M78.62,5.1v-1l.08,0,1,.55.08,0-.08,0-.83.48a.43.43,0,0,0-.2-.15"/><path class="cls-3" d="M82.56,9.79l1-.55.08-.05v1.6h0l-1.27.74-.08,0V10.31a.61.61,0,0,0,.35-.52"/><path class="cls-3" d="M79.77,8.58v2.21h0l-1,.6-.08,0v-3A.61.61,0,0,0,79,7.86a.66.66,0,0,0,0-.14L81,6.52h0l0,0,.52-.29.08,0V7.48h0Z"/><path class="cls-3" d="M78.09,9.84V15.9l0,0-1.15.66-.08.05V9l0,0,1.09-.62a.56.56,0,0,0,.15.1V9.84Z"/><path class="cls-3" d="M76.29,9.35v7.59h0l-1,.59a.6.6,0,0,0-.23-.19v-7a.61.61,0,0,0,.35-.52l.84-.48.07-.05Z"/><path class="cls-3" d="M74.47,7.49l-1.59.92,0,0,0,0-1-.6a.28.28,0,0,0,0-.09h0l2.14-1.24h0l0,0,.36-.21a.56.56,0,0,0,.17.09V7.48Z"/><path class="cls-3" d="M82.21,15.64V14.41a.59.59,0,0,0,.35-.47l.47-.27h0l0,0,.44-.26.08,0v1.59l0,0-1.27.73-.08.05Z"/><polygon class="cls-3" points="82.24 18.27 83.4 17.6 83.47 17.55 83.47 17.56 83.47 17.64 83.47 21.05 83.47 21.08 83.45 21.09 82.29 21.76 82.21 21.81 82.21 21.72 82.21 18.31 82.21 18.28 82.24 18.27"/><path class="cls-3" d="M84,20.68V17.56a.54.54,0,0,0,.25-.45h0l.93-.54.08,0V20l0,0-1.15.67-.08,0Z"/><path class="cls-3" d="M78.09,17.81v2.24h0l-2.85,1.65-.18-.1V18.47a.66.66,0,0,0,.33-.37L78,16.56l.08,0v1.29Z"/><path class="cls-3" d="M69.2,10.8l-1.27.74-.08,0V10.31a.61.61,0,0,0,.35-.52l1-.55.08-.05v1.6Z"/><polygon class="cls-3" points="65.41 8.58 65.41 10.76 65.41 10.79 65.38 10.8 64.34 11.4 64.26 11.45 64.26 11.36 64.26 7.95 64.26 7.92 64.29 7.91 67.24 6.2 67.32 6.16 67.32 6.25 67.32 7.45 67.32 7.47 67.29 7.49 65.41 8.58"/><polygon class="cls-3" points="64.34 12.41 65.38 13.02 65.41 13.03 65.41 13.06 65.41 14.9 65.41 14.93 65.38 14.95 64.34 15.55 64.26 15.59 64.26 15.5 64.26 14.36 64.26 14.36 64.26 13.62 64.26 12.46 64.26 12.37 64.34 12.41"/><path class="cls-3" d="M75,5V2l.08.05,1,.6h0v1.9h0l-.9.52A.61.61,0,0,0,75,5"/><path class="cls-3" d="M69.63,20.12v-.46A.64.64,0,0,0,70,19.1l.84-.49.08,0v3.57h0l-1.21.7-.08,0V20.12Z"/><path class="cls-3" d="M70.83,12.42,68.2,13.93a.59.59,0,0,1-.35.48v1.18l.08,0,2.95-1.71h0V12.37Z"/><polygon class="cls-3" points="70.83 14.49 67.88 16.19 67.85 16.21 67.85 16.24 67.85 17.58 67.85 17.67 67.93 17.62 70.56 16.1 70.56 16.1 70.88 15.92 70.91 15.9 70.91 15.87 70.91 14.53 70.91 14.44 70.83 14.49"/><polygon class="cls-3" points="72.82 24.98 71.79 24.39 71.71 24.34 71.79 24.3 72.82 23.7 72.82 24.98"/><polygon class="cls-3" points="69.88 17.11 70.34 16.85 70.34 16.84 70.38 16.82 70.83 16.56 70.91 16.52 70.91 16.61 70.91 17.71 69.88 17.11"/><polyline class="cls-4" points="0 22.1 62.37 22.09 72.53 27.95"/><polyline class="cls-5" points="149.53 5.94 87.16 5.95 77 0.09"/></g></g></svg>