<svg xmlns="http://www.w3.org/2000/svg" viewBox="0 0 21.01 24.5"><defs><style>.cls-1{fill:#b9d4d8;fill-rule:evenodd;}</style></defs><title>infoAsset 9</title><g id="Layer_2" data-name="Layer 2"><g id="Layer_1-2" data-name="Layer 1"><path class="cls-1" d="M10.55,0,0,6.43l0,12.1,10.55,6L21,18.56V6.47Zm1.11,20.18a1.28,1.28,0,0,1-.27.4,1.36,1.36,0,0,1-.39.27,1.16,1.16,0,0,1-.49.1,1.13,1.13,0,0,1-.49-.1,1.28,1.28,0,0,1-.4-.27,1,1,0,0,1-.27-.4,1.16,1.16,0,0,1-.1-.49,1.13,1.13,0,0,1,.1-.49,1.18,1.18,0,0,1,.27-.4,1.26,1.26,0,0,1,.89-.37,1.16,1.16,0,0,1,.49.1,1.19,1.19,0,0,1,.39.27,1.56,1.56,0,0,1,.27.4,1.3,1.3,0,0,1,.1.49A1.34,1.34,0,0,1,11.66,20.18Zm3-10.6a8.29,8.29,0,0,1-.8,1.46,16.47,16.47,0,0,1-1,1.38,17.08,17.08,0,0,0-1,1.39,7.71,7.71,0,0,0-.8,1.5A4.53,4.53,0,0,0,10.68,17h-.53a9.39,9.39,0,0,1,.18-1.93,11.25,11.25,0,0,1,.46-1.54,13.44,13.44,0,0,1,.6-1.32c.21-.41.41-.83.6-1.25a10.24,10.24,0,0,0,.46-1.32,6.33,6.33,0,0,0,.18-1.57,4.86,4.86,0,0,0-.18-1.4,3,3,0,0,0-.52-1,2.25,2.25,0,0,0-.79-.59,2.47,2.47,0,0,0-1-.2A2.93,2.93,0,0,0,9.29,5a2.21,2.21,0,0,0-.69.33,1.52,1.52,0,0,0-.44.51A1.24,1.24,0,0,0,8,6.49a1.22,1.22,0,0,0,.12.58,3.38,3.38,0,0,0,.24.41c.09.12.17.25.25.38a.94.94,0,0,1,.11.49,1.2,1.2,0,0,1-.26.83.79.79,0,0,1-.63.31.92.92,0,0,1-.49-.13A1.24,1.24,0,0,1,6.94,9a1.67,1.67,0,0,1-.27-.57,2.73,2.73,0,0,1-.09-.72A3.47,3.47,0,0,1,7,6a3.41,3.41,0,0,1,1-1.15A4,4,0,0,1,9.26,4.2,5.09,5.09,0,0,1,10.68,4a5.26,5.26,0,0,1,1.72.27A4,4,0,0,1,13.76,5a3.67,3.67,0,0,1,.89,1.23A4.13,4.13,0,0,1,15,7.91,4.32,4.32,0,0,1,14.65,9.58Z"/></g></g></svg>