<svg xmlns="http://www.w3.org/2000/svg" viewBox="0 0 122.93 140.11"><defs><style>.cls-1{fill:#b8d4d8;}.cls-1,.cls-2,.cls-3{fill-rule:evenodd;}.cls-2{fill:#017b90;}.cls-3{fill:#279ab5;}</style></defs><title>Asset 1</title><g id="Layer_2" data-name="Layer 2"><g id="Layer_1-2" data-name="Layer 1"><path class="cls-1" d="M100.2,94.23l-7.07-4.08L93,90.06l-.16.09-7.07,4.08-.46.26.46.27,4.54,2.62a3.61,3.61,0,0,1,5.24.07l4.67-2.69.46-.27Z"/><path class="cls-1" d="M80.92,31,65.69,22.18a4,4,0,0,0,.09-.86c0-.15,0-.31,0-.46l5.37-3.1.16-.09.15.09,7.5,4.32a3.61,3.61,0,0,0,7.07,0l7.48-4.31.15-.09.16.09,6.09,3.52.46.26-.46.27L84,31a3.63,3.63,0,0,0-3.11,0"/><path class="cls-1" d="M30.79,54.14l6.09,3.52.46.27-.46.26L22,66.78a3.6,3.6,0,0,0-5.14,0L2,58.19l-.46-.26L2,57.66l6.1-3.52.15-.09.15.09,11,6.37,11-6.37.16-.09Z"/><path class="cls-1" d="M27.06,39.6l-5.19,3a3.61,3.61,0,0,0-4.84,0l-5.2-3-.46-.26.46-.27,7.46-4.3.16-.09.15.09,7.46,4.3.46.27Z"/><path class="cls-1" d="M59,42.6l-5.19-3-.45-.27.45-.27,7.46-4.3.16-.09.15.09,7.46,4.3.46.27-.46.27-5.19,3a3.63,3.63,0,0,0-4.85,0"/><path class="cls-1" d="M95.87,39.07l7.46-4.3.15-.09.16.09,7.46,4.3.46.27-.46.26-5.19,3a3.63,3.63,0,0,0-4.85,0l-5.19-3-.46-.26Z"/><path class="cls-1" d="M92.45,54.14l11,6.37,11-6.37.15-.09.16.09,6.09,3.52.46.27-.46.26-14.87,8.59a3.6,3.6,0,0,0-5.14,0L86.05,58.19l-.46-.26.46-.27,6.09-3.52.16-.09Z"/><path class="cls-1" d="M105.2,83.78l9.32-5.38.15-.09.15.09,6.1,3.52.46.27-.46.26-5.5,3.18a3,3,0,0,0-1.43-.35,3.06,3.06,0,0,0-3.06,2.94l-5.43,3.13-.46.27V83.87Z"/><path class="cls-1" d="M17.89,84.05v7.57l-.46-.27L12,88.22a3.06,3.06,0,0,0-3.06-2.94,3,3,0,0,0-1.43.35L2,82.45l-.46-.26L2,81.92l6.1-3.52.15-.09.15.09,9.32,5.38.16.09Z"/><path class="cls-1" d="M22.73,94.23l7.07-4.08.15-.09.16.09,7.07,4.08.46.26-.46.27-4.54,2.62a3.61,3.61,0,0,0-5.24.07l-4.67-2.69-.46-.27Z"/><path class="cls-1" d="M80.91,109.68v9.79l8.48,4.89.46.27-.46.26-6.78,3.91-.15.09-.15-.09-14.18-8.18h0l-2.38-1.38a4.36,4.36,0,0,0,0-.51,5.18,5.18,0,0,0-.07-.8l14.74-8.51.46-.27Z"/><path class="cls-1" d="M42.48,109.41l14.75,8.52a4.17,4.17,0,0,0-.08.8,4.36,4.36,0,0,0,0,.51L40.63,128.8l-.16.09-.15-.09-6.77-3.91-.46-.26.46-.27L42,119.47V109.14Z"/><path class="cls-1" d="M29.44,17.77l7.48,4.31a3.61,3.61,0,0,0,7.07,0l7.5-4.32.15-.09.16.09,5.38,3.1a3.55,3.55,0,0,0,0,.46,4,4,0,0,0,.09.86L42,31a3.63,3.63,0,0,0-3.11,0L23,21.82l-.46-.27.46-.27,6.09-3.51.16-.09Z"/><polygon class="cls-2" points="90.06 88.38 87.37 86.82 87.38 86.81 87.12 86.66 84.5 85.15 84.03 84.88 84.03 85.41 84.04 91.86 90.06 88.38"/><path class="cls-2" d="M91.51,106v-2.74A3.62,3.62,0,0,1,89.26,100l-5-2.86-.46-.27v20.89l.15.09L91.05,122l.46.27V106Z"/><path class="cls-2" d="M32.2,51.18V38.44l-11-6.37L21,32V24.23l.46.27,3,1.74.26.16h0l12.18,7a3.57,3.57,0,0,0-.09.8,3.62,3.62,0,0,0,2.06,3.27V55.23L38.44,55l-6.09-3.51-.15-.09Z"/><path class="cls-2" d="M42,50.13V37.51a4,4,0,0,0,.9-.61l6.33,3.65.15.09V85.55l-.46-.26-6.77-3.91L42,81.29V56.86h0Z"/><path class="cls-2" d="M52.52,87.18V42.44l.46.27,4.88,2.81a3.62,3.62,0,0,0,2,3V89.77a3.69,3.69,0,0,0-1.33,1.08l-5.9-3.4-.16-.09Z"/><path class="cls-2" d="M72.5,37.45l-9.32-5.38L63,32V25.35a4.3,4.3,0,0,0,1-.54L66.11,26l.26.15h0l12.52,7.23.06,0a3,3,0,0,0-.08.51l-6.06,3.5-.16.09Z"/><path class="cls-2" d="M58.61,18.09l-5.25-3L53.2,15V3.87l.16-.09L59.45.27,59.91,0V17.3a4.12,4.12,0,0,0-1.3.79"/><path class="cls-2" d="M38.9,12.66v5.4a3.68,3.68,0,0,0-1.18.89l-4.86-2.81-.46-.26.46-.27,5.58-3.21.46-.27Z"/><path class="cls-2" d="M72.85,14.79V5.67l.46.27,7.45,4.3.15.09v7.73a3.64,3.64,0,0,0-1.17.89L73,15.06,72.85,15Z"/><path class="cls-2" d="M94.32,42.3l5.55,3.21a3.65,3.65,0,0,0,2,3.05V56l-.46-.27L94,51.45l-.15-.09V42Z"/><polygon class="cls-2" points="116.23 51.18 116.23 38.44 105.2 32.07 105.04 31.98 105.04 31.8 105.04 24.79 105.04 24.26 105.5 24.53 122.78 34.5 122.93 34.59 122.93 34.77 122.93 54.7 122.93 55.23 122.47 54.96 116.39 51.45 116.23 51.36 116.23 51.18"/><polygon class="cls-2" points="116.39 64.4 122.47 60.89 122.93 60.62 122.93 61.15 122.93 67.92 122.93 67.92 122.93 72.24 122.93 78.95 122.93 79.49 122.47 79.22 116.39 75.71 116.23 75.62 116.23 75.44 116.23 64.67 116.23 64.49 116.39 64.4"/><path class="cls-2" d="M84.5,60.89l15.39,8.89a3.65,3.65,0,0,0,2,2.81v6.89l-.46-.27-17.27-10L84,69.15V60.62Z"/><polygon class="cls-2" points="84.5 73.02 101.77 83 101.92 83.08 101.92 83.26 101.92 91.09 101.92 91.62 101.46 91.35 86.06 82.46 86.06 82.46 84.19 81.38 84.03 81.29 84.03 81.11 84.03 73.29 84.03 72.76 84.5 73.02"/><polygon class="cls-2" points="72.85 126.94 78.88 130.43 79.34 130.69 78.88 130.96 72.85 134.44 72.85 126.94"/><path class="cls-2" d="M59.91,96.3v18.4a4.68,4.68,0,0,0-1,.57l-16.71-9.64-.15-.09V84.9l.46.26,15.54,9a3.57,3.57,0,0,0,1.89,2.17"/><path class="cls-2" d="M17.43,80,10,75.71l-.15-.09V66.29l.46.27,2.59,1.49.27.16h0l2.73,1.57a3.63,3.63,0,0,0,2,2.8v7.68Z"/><path class="cls-2" d="M10.28,42.3l5.56,3.21a3.63,3.63,0,0,0,2.05,3.05V56l-.46-.27L10,51.45l-.15-.09V42Z"/><path class="cls-2" d="M28.49,113.52V122l-.46-.26-6.86-4-.16-.09V109h0v-4.67h0v-2.68h0V97l.46.27,5,2.87a3.63,3.63,0,0,0,2,3v10.34Z"/><polygon class="cls-2" points="17.73 95.13 10.96 91.22 10.52 90.96 10.5 90.97 10.5 91.48 10.5 111.41 10.5 111.59 10.65 111.68 17.42 115.58 17.88 115.85 17.88 115.32 17.89 95.39 17.89 95.21 17.73 95.13"/><path class="cls-2" d="M7.38,109.25V91a3,3,0,0,1-1.5-2.63v0L.46,85.16,0,84.89v20.63l.15.09,6.77,3.91.46.27Z"/><path class="cls-2" d="M59.45,139.84l-6.09-3.51-.16-.09v-11.1l.16-.09,5.29-3a4.43,4.43,0,0,0,1.26.75v17.36Z"/><path class="cls-3" d="M63,139.58V122.75a4.52,4.52,0,0,0,1.25-.75l5.29,3,.16.09v11.1l-.16.09-6.08,3.51-.46.27Z"/><path class="cls-3" d="M94.44,113.52V122l.46-.26,6.87-4,.15-.09V109h0v-4.67h0v-2.68h0V97l-.46.27-5,2.87a3.63,3.63,0,0,1-2,3v10.34Z"/><path class="cls-3" d="M50.09,6.2V15l-.16.09L43.19,19A3.53,3.53,0,0,0,42,18.06V10.33l.15-.09,7.45-4.3.47-.27Z"/><path class="cls-3" d="M84,18.06V12.13l.47.27,5.57,3.21.46.27-.46.26L85.21,19A3.57,3.57,0,0,0,84,18.06"/><path class="cls-3" d="M107.09,45.51l5.56-3.21.46-.27v9.33l-.15.09-7.45,4.3L105,56V48.55a3.6,3.6,0,0,0,2-3"/><path class="cls-3" d="M90.74,38.44V51.36l-.16.09L84.5,55l-.47.27V37.51a3.62,3.62,0,0,0,2.06-3.27,3.57,3.57,0,0,0-.09-.8l12.18-7h0l.26-.16,3-1.74.46-.27V32l-.15.09Z"/><path class="cls-3" d="M80.91,45.82V81.29l-.15.09L74,85.29l-.46.26V40.64l.15-.09L80,36.9a3.57,3.57,0,0,0,.9.61v8.31Z"/><path class="cls-3" d="M70.41,43V87.36l-.16.09-5.9,3.4A3.74,3.74,0,0,0,63,89.77V48.55a3.63,3.63,0,0,0,2-3L70,42.71l.46-.27Z"/><path class="cls-3" d="M59.75,32.07l-9.32,5.38-.15.09-.15-.09L44.06,34a4.46,4.46,0,0,0-.07-.51l0,0,12.52-7.23h0l.26-.15,2.1-1.21a4.3,4.3,0,0,0,1,.54V32Z"/><path class="cls-3" d="M105,79.74V72.59a3.61,3.61,0,0,0,2-2.8l2.73-1.57h0l.27-.16,2.59-1.49.46-.27v9.33l-.15.09L105.51,80l-.47.26Z"/><polygon class="cls-3" points="105.2 95.13 111.97 91.22 112.42 90.96 112.43 90.97 112.43 91.48 112.43 111.41 112.43 111.59 112.28 111.68 105.51 115.58 105.05 115.85 105.05 115.32 105.05 95.39 105.05 95.21 105.2 95.13"/><path class="cls-3" d="M115.55,109.25V91a3,3,0,0,0,1.5-2.63v0l5.42-3.13.46-.27v20.63l-.15.09L116,109.52l-.46.27Z"/><path class="cls-3" d="M80.91,92.45v13.09l-.15.09-16.7,9.65a4.54,4.54,0,0,0-1-.58V96.3a3.59,3.59,0,0,0,1.88-2.17l15.54-9,.46-.26v7.55Z"/><path class="cls-3" d="M28.92,51.45l-7.45,4.3L21,56V48.56a3.65,3.65,0,0,0,2-3.05l5.56-3.21.46-.27v9.33Z"/><polygon class="cls-3" points="6.7 38.44 6.7 51.18 6.7 51.36 6.55 51.45 0.46 54.96 0 55.23 0 54.7 0 34.76 0 34.59 0.15 34.5 17.43 24.53 17.89 24.26 17.89 24.79 17.89 31.8 17.89 31.98 17.73 32.07 6.7 38.44"/><polygon class="cls-3" points="0.46 60.89 6.55 64.4 6.7 64.49 6.7 64.67 6.7 75.44 6.7 75.62 6.55 75.71 0.46 79.22 0 79.49 0 78.95 0 72.24 0 72.24 0 67.92 0 61.15 0 60.62 0.46 60.89"/><path class="cls-3" d="M63,17.3V0l.46.27,6.08,3.51.16.09V15l-.16.09-5.25,3A4.08,4.08,0,0,0,63,17.3"/><path class="cls-3" d="M31.42,106v-2.74A3.62,3.62,0,0,0,33.67,100l5-2.86.46-.27v20.89l-.15.09L31.88,122l-.46.27V106Z"/><path class="cls-3" d="M38.43,60.89,23,69.78a3.65,3.65,0,0,1-2,2.81v6.89l.46-.27,17.27-10,.16-.09V60.62Z"/><polygon class="cls-3" points="38.43 73.03 21.16 83 21.01 83.09 21.01 83.26 21.01 91.09 21.01 91.62 21.47 91.35 36.87 82.46 36.88 82.46 38.74 81.38 38.9 81.29 38.9 81.11 38.9 73.29 38.9 72.76 38.43 73.03"/><polygon class="cls-3" points="50.09 134.44 44.05 130.96 43.59 130.69 44.06 130.43 50.09 126.95 50.09 134.44"/><polygon class="cls-3" points="32.87 88.38 35.56 86.82 35.55 86.81 35.81 86.66 38.44 85.15 38.9 84.88 38.9 85.41 38.9 91.86 32.87 88.38"/></g></g></svg>